# xmcd CD database file
#
# Track frame offsets:
#	150
#	19599
#	31514
#	49338
#	63667
#	85217
#	97227
#	113640
#	129132
#	143841
#	161072
#	178256
#	195275
#	209140
#	222015
#	239833
#	250669
#	264033
#	277504
#	296330
#	312027
#	331473
#
# Disc length: 4668 seconds
#
# Revision: 1
# Processed by: cddbd v1.5.2PL0 Copyright (c) Steve Scherf et al.
# Submitted via: CDex 1.51
#
DISCID=36123a16
DTITLE=Various Artist - ZM-UKPP-Disc-6
DYEAR=1900
DGENRE=Blues
TTITLE0=Tina Turner - The Best
TTITLE1=Elvis Presley - The Wonder Of You
TTITLE2=Carpenters The - Close To You (they long to be)
TTITLE3=Shakin' Stevens - This Old House
TTITLE4=Bonnie Tyler - Total Eclipse Of The Heart
TTITLE5=Beatles The - Twist And Shout
TTITLE6=Phil Collins - Two Hearts
TTITLE7=Showaddywaddy - Under The Moon Of Love
TTITLE8=Billy Joel - Uptown Girl
TTITLE9=Mark Ronson Ft Amy Winehouse - Valerie
TTITLE10=Wham - Wake Me Up Before You Go Go
TTITLE11=Dire Straits - Walk Of Life
TTITLE12=Abba - Waterloo
TTITLE13=Troggs The - Wild Thing
TTITLE14=Village People The - Y.M.C.A
TTITLE15=Kinks The - You Really Got Me
TTITLE16=Gerry and The Pacemakers - You'll Never Walk Alone
TTITLE17=John Travolta and Olivia Newton John - You're The One That I Want
TTITLE18=Righteous Brothers The - You've Lost That Lovin' Feelin'
TTITLE19=Gary Puckett and The Union Gap - Young Girl
TTITLE20=Candi Staton - Young Hearts Run Free
TTITLE21=Elton John - Your Song
EXTD=
EXTT0=
EXTT1=
EXTT2=
EXTT3=
EXTT4=
EXTT5=
EXTT6=
EXTT7=
EXTT8=
EXTT9=
EXTT10=
EXTT11=
EXTT12=
EXTT13=
EXTT14=
EXTT15=
EXTT16=
EXTT17=
EXTT18=
EXTT19=
EXTT20=
EXTT21=
PLAYORDER=
